<?xml version="1.0" encoding="UTF-8"?>
<svg id="Layer_1" data-name="Layer 1" xmlns="http://www.w3.org/2000/svg" viewBox="0 0 358.05 355.34">
  <path d="M22.04,57.84v276.49h276v-188.15c0-7.87,16.35-12.88,20.24-3.24l.21,206.31c-1.9,3.82-5.55,6.05-9.9,6.09l-300.58-.52c-3.99-1.48-6.2-3.52-7.29-7.7L0,50.31c-.01-5.4,1.38-10,6.3-12.68h206.49c9.66,3.89,4.64,20.21-3.24,20.21H22.04Z"/>
  <path d="M335.04,36.88l-167.96,167.23c-10.59,7.64-23.19-4.39-15.05-15.02L320.04,20.9h-73.5c-.69,0-4.56-2.71-5.36-3.63-4.72-5.48-2.25-16.06,5.42-17.27l104.18.7c4.22,2.29,6.1,7.05,6.3,11.68-2.52,29.69,3.28,64.7-.15,93.76-.74,6.29-3.58,11.12-10.51,11.56-4.78.3-11.37-4.69-11.37-9.45V36.88Z"/>
</svg>