<?xml version="1.0" encoding="UTF-8"?>
<svg id="Layer_1" xmlns="http://www.w3.org/2000/svg" version="1.1" viewBox="0 0 217.95 218.4">
  <defs>
    <style>
      .ring {
        fill: #0075ff;
      }

      .txt {
        fill: #fff;
        font-family: TamilSangamMN-Light, 'Tamil Sangam MN';
        font-size: 92.04px;
        font-weight: 300;
        letter-spacing: .01em;
      }
    </style>
  </defs>
  <text class="txt" transform="translate(62 130.14) scale(.97 1)"><tspan x="0" y="0">px</tspan></text>
  <path class="ring" d="M217.95,104.2h-11.9c-2.52-49.7-42.37-89.56-92.07-92.07V0h-10v12.12C54.27,14.64,14.42,54.5,11.9,104.2H0v10h11.9c2.52,49.7,42.37,89.56,92.07,92.07v12.12h10v-12.12c49.7-2.52,89.56-42.37,92.07-92.07h11.9v-10ZM113.97,196.25v-26.4h-10v26.4c-44.11-2.51-79.55-37.94-82.05-82.05h26.53v-10h-26.53C24.43,60.09,59.86,24.65,103.97,22.14v26.4h10v-26.4c44.11,2.51,79.55,37.94,82.05,82.05h-26.53v10h26.53c-2.51,44.11-37.94,79.55-82.05,82.05Z"/>
</svg>